<?xml version="1.0" standalone="no"?>
<!DOCTYPE svg PUBLIC "-//W3C//DTD SVG 1.1//EN" "http://www.w3.org/Graphics/SVG/1.1/DTD/svg11.dtd">
<svg width="100%" height="100%" viewBox="0 0 1280 740" version="1.1" xmlns="http://www.w3.org/2000/svg" xmlns:xlink="http://www.w3.org/1999/xlink" xml:space="preserve" style="fill-rule:evenodd;clip-rule:evenodd;stroke-linejoin:round;stroke-miterlimit:1.41421;">
    <g transform="matrix(0.887667,0,0,0.887667,-108.061,-67.7884)">
        <path d="M187.259,416.919L187.259,143.399L301.378,143.399L301.378,181.388L242.571,181.388L242.571,255.846L284.207,255.846L284.207,294.747L242.571,294.747L242.571,378.93L301.378,378.93L301.378,416.919L187.259,416.919Z" style="fill:rgb(200,106,199);fill-rule:nonzero;"/>
        <path d="M356.082,416.919L356.082,326.506L304.721,143.399L356.842,143.399L382.371,263.596C385.511,250.426 390.222,230.393 396.503,203.497C402.783,176.601 407.443,156.568 410.483,143.399L461.084,143.399L409.571,326.506L409.571,416.919L356.082,416.919Z" style="fill:rgb(200,106,199);fill-rule:nonzero;"/>
        <path d="M477.191,416.919L477.191,143.399L591.31,143.399L591.31,181.388L532.503,181.388L532.503,255.846L574.139,255.846L574.139,294.747L532.503,294.747L532.503,378.93L591.31,378.93L591.31,416.919L477.191,416.919Z" style="fill:rgb(200,106,199);fill-rule:nonzero;"/>
        <path d="M669.871,325.594L669.871,235.028C669.871,170.396 696.312,138.08 749.192,138.08C760.336,138.08 770.238,139.574 778.9,142.563C787.561,145.551 794.83,149.68 800.705,154.947C806.581,160.215 811.418,166.699 815.217,174.398C819.016,182.097 821.751,190.454 823.423,199.47C825.094,208.486 825.93,218.414 825.93,229.254L825.93,252.807L771.53,252.807L771.53,227.582C771.53,222.618 771.429,218.338 771.226,214.742C771.023,211.146 770.492,207.043 769.63,202.434C768.769,197.824 767.604,194.076 766.135,191.189C764.667,188.302 762.489,185.845 759.601,183.819C756.714,181.793 753.245,180.78 749.192,180.78C733.186,180.78 725.183,194.253 725.183,221.2L725.183,339.27C725.183,366.115 733.186,379.538 749.192,379.538C753.954,379.538 757.955,378.171 761.197,375.435C764.439,372.7 766.769,368.825 768.187,363.811C769.605,358.796 770.568,353.883 771.074,349.071C771.581,344.259 771.834,338.763 771.834,332.584L771.834,304.472L825.93,304.472L825.93,327.569C825.728,338.004 824.866,347.627 823.347,356.441C821.827,365.254 819.244,373.815 815.597,382.121C811.95,390.428 807.316,397.444 801.693,403.167C796.071,408.891 788.802,413.5 779.888,416.995C770.973,420.49 760.741,422.238 749.192,422.238C737.34,422.238 726.83,420.541 717.662,417.147C708.494,413.754 700.946,409.195 695.02,403.471C689.094,397.748 684.206,390.707 680.356,382.349C676.507,373.992 673.797,365.204 672.227,355.985C670.657,346.766 669.871,336.636 669.871,325.594Z" style="fill:rgb(200,106,199);fill-rule:nonzero;"/>
        <path d="M906.163,324.378L934.427,324.378L920.599,222.872L906.163,324.378ZM836.871,416.919L895.982,143.399L944.912,143.399L1003.87,416.919L949.318,416.919L938.074,358.416L902.364,358.416L891.727,416.919L836.871,416.919Z" style="fill:rgb(200,106,199);fill-rule:nonzero;"/>
        <path d="M1021.5,416.919L1021.5,143.247L1061.31,143.247L1121.33,286.389L1121.33,143.247L1167.22,143.247L1167.22,416.919L1128.93,416.919L1069.06,265.115L1069.06,416.919L1021.5,416.919Z" style="fill:rgb(200,106,199);fill-rule:nonzero;"/>
        <path d="M1199.74,416.919L1199.74,143.399L1256.88,143.399C1275.11,143.399 1290.13,145.045 1301.93,148.337C1313.73,151.63 1323,157.049 1329.74,164.597C1336.48,172.144 1341.14,181.185 1343.72,191.721C1346.3,202.256 1347.6,215.679 1347.6,231.989L1347.6,321.643C1347.6,331.368 1347.29,339.852 1346.68,347.096C1346.08,354.339 1344.94,361.43 1343.26,368.369C1341.59,375.309 1339.31,381.184 1336.43,385.996C1333.54,390.808 1329.82,395.291 1325.26,399.444C1320.7,403.598 1315.2,406.89 1308.77,409.322C1302.34,411.753 1294.79,413.627 1286.13,414.944C1277.47,416.261 1267.51,416.919 1256.27,416.919L1199.74,416.919ZM1257.18,378.171C1262.45,378.171 1266.6,378.095 1269.64,377.943C1272.68,377.791 1275.72,377.411 1278.76,376.803C1281.8,376.195 1284.03,375.359 1285.44,374.296C1286.86,373.232 1288.18,371.687 1289.4,369.661C1290.61,367.635 1291.4,365.229 1291.75,362.443C1292.11,359.657 1292.28,356.188 1292.28,352.034L1292.28,204.789C1292.28,195.773 1289.6,189.796 1284.23,186.858C1278.86,183.92 1269.84,182.401 1257.18,182.299L1257.18,378.171Z" style="fill:rgb(200,106,199);fill-rule:nonzero;"/>
        <path d="M1406.1,416.919L1406.1,326.506L1354.74,143.399L1406.86,143.399L1432.39,263.596C1435.53,250.426 1440.24,230.393 1446.52,203.497C1452.8,176.601 1457.46,156.568 1460.5,143.399L1511.1,143.399L1459.59,326.506L1459.59,416.919L1406.1,416.919Z" style="fill:rgb(200,106,199);fill-rule:nonzero;"/>
    </g>
    <g transform="matrix(1.48708,0,0,1.09631,-221.582,212.283)">
        <path d="M261.414,419.655C236.898,419.655 218.182,412.462 205.266,398.077C192.35,383.692 185.132,364.039 183.612,339.118L222.513,329.393C224.438,368.293 237.405,387.744 261.414,387.744C280.864,387.744 290.589,378.019 290.589,358.568C290.589,352.794 289.804,347.45 288.234,342.537C286.664,337.624 284.258,333.116 281.016,329.013C277.774,324.91 274.837,321.618 272.203,319.136C269.569,316.654 265.972,313.589 261.414,309.942L212.788,271.042C203.873,264.052 196.757,255.162 191.438,244.373C186.12,233.585 183.46,221.301 183.46,207.524C183.46,187.466 189.691,171.511 202.151,159.658C214.611,147.805 231.124,141.879 251.689,141.879C273.773,141.879 291.324,147.274 304.341,158.062C317.359,168.851 325.387,184.123 328.426,203.877C328.73,206.005 329.085,208.942 329.49,212.691L290.589,222.416C290.488,220.694 290.235,218.11 289.83,214.666C288.107,202.307 284.233,192.404 278.205,184.959C272.177,177.513 263.339,173.79 251.689,173.79C242.369,173.79 235.176,176.398 230.111,181.616C225.046,186.833 222.513,194.101 222.513,203.421C222.513,218.718 228.997,231.533 241.963,241.866L290.589,280.767C316.523,301.737 329.49,326.81 329.49,355.985C329.49,375.942 323.336,391.543 311.027,402.787C298.719,414.032 282.181,419.655 261.414,419.655Z" style="fill:rgb(200,106,199);fill-rule:nonzero;"/>
        <path d="M399.238,319.668L438.139,319.668L418.688,202.965L399.238,319.668ZM340.887,416.919L399.238,144.614L438.139,144.614L496.49,416.919L457.589,416.919L443.001,348.843L394.375,348.843L379.787,416.919L340.887,416.919Z" style="fill:rgb(200,106,199);fill-rule:nonzero;"/>
        <path d="M518.371,416.919L518.371,144.614L557.272,144.614L557.272,387.744L625.348,387.744L625.348,416.919L518.371,416.919Z" style="fill:rgb(200,106,199);fill-rule:nonzero;"/>
        <path d="M713.635,419.655C699.959,419.655 688.233,417.578 678.457,413.424C668.681,409.271 660.906,403.193 655.132,395.19C649.357,387.187 645.153,377.791 642.519,367.002C639.885,356.213 638.568,343.677 638.568,329.393L638.568,230.621C638.568,216.338 639.885,203.877 642.519,193.24C645.153,182.603 649.357,173.359 655.132,165.508C660.906,157.657 668.681,151.756 678.457,147.805C688.233,143.855 699.959,141.879 713.635,141.879C740.176,141.879 759.323,149.477 771.074,164.673C782.825,179.868 788.701,201.851 788.701,230.621L788.701,329.393C788.701,343.474 787.359,355.909 784.674,366.698C781.99,377.487 777.76,386.908 771.986,394.962C766.211,403.015 758.436,409.144 748.661,413.348C738.885,417.553 727.209,419.655 713.635,419.655ZM713.635,387.744C727.311,387.744 736.757,383.641 741.975,375.435C747.192,367.23 749.8,355.124 749.8,339.118L749.8,220.896C749.8,205.093 747.217,193.291 742.05,185.49C736.884,177.69 727.412,173.79 713.635,173.79C699.857,173.79 690.385,177.69 685.219,185.49C680.052,193.291 677.469,205.093 677.469,220.896L677.469,339.118C677.469,355.124 680.078,367.23 685.295,375.435C690.512,383.641 699.959,387.744 713.635,387.744Z" style="fill:rgb(200,106,199);fill-rule:nonzero;"/>
        <path d="M822.739,416.919L822.739,144.614L851.915,144.614L919.991,312.982L919.991,144.614L958.892,144.614L958.892,416.919L931.236,416.919L861.64,235.788L861.64,416.919L822.739,416.919Z" style="fill:rgb(200,106,199);fill-rule:nonzero;"/>
    </g>
</svg>
